# xmcd
# 
# Track frame offsets:
#     150
#     11068
#     23657
#     39851
#     52326
#     68452
#     82985
#     98499
#     108868
#     126881
#     139081
#     149954
#     162779
#     173353
#     189187
# 
# Disc length: 2853
# 
# Revision: 1
# Processed by: cddbd v1.5.2PL0 Copyright (c) Steve Scherf et al.
# Submitted via: BonkEnc v1.0.8
# 
DISCID=b80b230f
DTITLE=Aretha Franklin - Queen of Soul
DYEAR=2009
DGENRE=Soul
TTITLE0=Respect
TTITLE1=Chain of Fools
TTITLE2=You're All I Need to Get By
TTITLE3=(You Make Me Feel Like) A Natural Woman
TTITLE4=I Say a Little Prayer
TTITLE5=Rock Steady
TTITLE6=Until You Come Back To Me (That's What I'm Gonna Do)
TTITLE7=Think
TTITLE8=Day Dreaming
TTITLE9=Baby I Love You
TTITLE10=Since You've Been Gone (Sweet Sweet Baby)
TTITLE11=I Never Loved a Man (The Way I Love You)
TTITLE12=The House That Jack Built
TTITLE13=Spanish Harlem
TTITLE14=Bridge Over Troubled Water
EXTD=
EXTT0=
EXTT1=
EXTT2=
EXTT3=
EXTT4=
EXTT5=
EXTT6=
EXTT7=
EXTT8=
EXTT9=
EXTT10=
EXTT11=
EXTT12=
EXTT13=
EXTT14=
PLAYORDER=
